<svg xmlns="http://www.w3.org/2000/svg" xmlns:xlink="http://www.w3.org/1999/xlink" width="1920" zoomAndPan="magnify" viewBox="0 0 1440 809.999993" height="1080" preserveAspectRatio="xMidYMid meet" version="1.0"><defs><clipPath id="9a5281cfc6"><path d="M 18.683594 135.320312 L 1421.183594 135.320312 L 1421.183594 809.644531 L 18.683594 809.644531 Z M 18.683594 135.320312 " clip-rule="nonzero"/></clipPath><clipPath id="4567f87999"><path d="M 518.261719 331.59375 L 522.011719 331.59375 L 522.011719 574.59375 L 518.261719 574.59375 Z M 518.261719 331.59375 " clip-rule="nonzero"/></clipPath><clipPath id="7b3cd98443"><path d="M 0.261719 0.59375 L 4.011719 0.59375 L 4.011719 243.59375 L 0.261719 243.59375 Z M 0.261719 0.59375 " clip-rule="nonzero"/></clipPath><clipPath id="29fa0b49f1"><rect x="0" width="5" y="0" height="244"/></clipPath></defs><g clip-path="url(#9a5281cfc6)"><path fill="#2979ff" d="M 72.628906 607.347656 C 42.996094 607.347656 18.683594 631.660156 18.683594 661.296875 C 18.683594 690.929688 42.996094 715.246094 72.628906 715.246094 C 102.261719 715.246094 126.574219 690.929688 126.574219 661.296875 C 126.574219 631.660156 102.261719 607.347656 72.628906 607.347656 Z M 72.628906 634.324219 C 87.683594 634.324219 99.597656 646.238281 99.597656 661.296875 C 99.597656 676.351562 87.683594 688.265625 72.628906 688.265625 C 57.574219 688.265625 45.660156 676.351562 45.660156 661.296875 C 45.660156 646.238281 57.574219 634.324219 72.628906 634.324219 Z M 180.511719 445.507812 C 150.878906 445.507812 126.574219 469.824219 126.574219 499.457031 C 126.574219 529.089844 150.878906 553.40625 180.511719 553.40625 C 210.144531 553.40625 234.457031 529.089844 234.457031 499.457031 C 234.457031 469.824219 210.144531 445.507812 180.511719 445.507812 Z M 180.511719 472.484375 C 195.566406 472.484375 207.488281 484.398438 207.488281 499.457031 C 207.488281 514.511719 195.566406 526.425781 180.511719 526.425781 C 165.457031 526.425781 153.542969 514.511719 153.542969 499.457031 C 153.542969 484.398438 165.457031 472.484375 180.511719 472.484375 Z M 355.824219 297.15625 C 326.195312 297.15625 301.882812 321.472656 301.882812 351.105469 C 301.882812 380.742188 326.195312 405.046875 355.824219 405.046875 C 385.457031 405.046875 409.773438 380.742188 409.773438 351.105469 C 409.773438 321.472656 385.457031 297.15625 355.824219 297.15625 Z M 355.824219 324.128906 C 370.882812 324.128906 382.792969 336.050781 382.792969 351.105469 C 382.792969 366.164062 370.882812 378.078125 355.824219 378.078125 C 340.769531 378.078125 328.859375 366.164062 328.859375 351.105469 C 328.859375 336.050781 340.769531 324.128906 355.824219 324.128906 Z M 517.652344 135.320312 C 488.023438 135.320312 463.707031 159.632812 463.707031 189.269531 C 463.707031 218.902344 488.023438 243.207031 517.652344 243.207031 C 547.285156 243.207031 571.597656 218.902344 571.597656 189.269531 C 571.597656 159.632812 547.285156 135.320312 517.652344 135.320312 Z M 517.652344 162.289062 C 532.710938 162.289062 544.621094 174.210938 544.621094 189.269531 C 544.621094 204.324219 532.710938 216.238281 517.652344 216.238281 C 502.597656 216.238281 490.6875 204.324219 490.6875 189.269531 C 490.6875 174.210938 502.597656 162.289062 517.652344 162.289062 Z M 854.796875 418.535156 C 825.164062 418.535156 800.851562 442.851562 800.851562 472.484375 C 800.851562 502.121094 825.164062 526.425781 854.796875 526.425781 C 884.429688 526.425781 908.730469 502.121094 908.730469 472.484375 C 908.730469 442.851562 884.429688 418.535156 854.796875 418.535156 Z M 854.796875 445.507812 C 869.851562 445.507812 881.765625 457.429688 881.765625 472.484375 C 881.765625 487.542969 869.851562 499.457031 854.796875 499.457031 C 839.742188 499.457031 827.820312 487.542969 827.820312 472.484375 C 827.820312 457.429688 839.742188 445.507812 854.796875 445.507812 Z M 706.449219 243.207031 C 676.816406 243.207031 652.511719 267.523438 652.511719 297.15625 C 652.511719 326.792969 676.816406 351.105469 706.449219 351.105469 C 736.082031 351.105469 760.394531 326.792969 760.394531 297.15625 C 760.394531 267.523438 736.082031 243.207031 706.449219 243.207031 Z M 706.449219 270.1875 C 721.503906 270.1875 733.425781 282.101562 733.425781 297.15625 C 733.425781 312.214844 721.503906 324.128906 706.449219 324.128906 C 691.394531 324.128906 679.480469 312.214844 679.480469 297.15625 C 679.480469 282.101562 691.394531 270.1875 706.449219 270.1875 Z M 1003.136719 216.238281 C 973.503906 216.238281 949.1875 240.554688 949.1875 270.1875 C 949.1875 299.820312 973.503906 324.128906 1003.136719 324.128906 C 1032.765625 324.128906 1057.082031 299.820312 1057.082031 270.1875 C 1057.082031 240.554688 1032.765625 216.238281 1003.136719 216.238281 Z M 1003.136719 243.207031 C 1018.191406 243.207031 1030.101562 255.132812 1030.101562 270.1875 C 1030.101562 285.246094 1018.191406 297.15625 1003.136719 297.15625 C 988.078125 297.15625 976.167969 285.246094 976.167969 270.1875 C 976.167969 255.132812 988.078125 243.207031 1003.136719 243.207031 Z M 1164.960938 485.96875 C 1135.332031 485.96875 1111.015625 510.28125 1111.015625 539.917969 C 1111.015625 569.550781 1135.332031 593.867188 1164.960938 593.867188 C 1194.59375 593.867188 1218.90625 569.550781 1218.90625 539.917969 C 1218.90625 510.28125 1194.59375 485.96875 1164.960938 485.96875 Z M 1164.960938 512.945312 C 1180.015625 512.945312 1191.929688 524.859375 1191.929688 539.917969 C 1191.929688 554.972656 1180.015625 566.886719 1164.960938 566.886719 C 1149.90625 566.886719 1137.992188 554.972656 1137.992188 539.917969 C 1137.992188 524.859375 1149.90625 512.945312 1164.960938 512.945312 Z M 1367.242188 661.296875 C 1337.613281 661.296875 1313.300781 685.613281 1313.300781 715.246094 C 1313.300781 744.878906 1337.613281 769.183594 1367.242188 769.183594 C 1396.882812 769.183594 1421.199219 744.878906 1421.199219 715.246094 C 1421.199219 685.613281 1396.882812 661.296875 1367.242188 661.296875 Z M 1367.242188 688.265625 C 1382.304688 688.265625 1394.210938 700.1875 1394.210938 715.246094 C 1394.210938 730.300781 1382.304688 742.214844 1367.242188 742.214844 C 1352.1875 742.214844 1340.277344 730.300781 1340.277344 715.246094 C 1340.277344 700.1875 1352.1875 688.265625 1367.242188 688.265625 Z M 1164.960938 566.886719 C 1163.191406 566.886719 1161.4375 567.234375 1159.796875 567.910156 C 1158.164062 568.589844 1156.675781 569.582031 1155.421875 570.835938 C 1154.167969 572.089844 1153.175781 573.574219 1152.5 575.214844 C 1151.820312 576.851562 1151.472656 578.605469 1151.472656 580.375 L 1151.472656 715.246094 C 1151.472656 718.820312 1152.898438 722.25 1155.425781 724.777344 C 1157.953125 727.308594 1161.386719 728.726562 1164.960938 728.726562 C 1168.535156 728.726562 1171.96875 727.308594 1174.496094 724.777344 C 1177.027344 722.25 1178.449219 718.820312 1178.449219 715.246094 L 1178.449219 580.375 C 1178.449219 578.605469 1178.101562 576.851562 1177.425781 575.214844 C 1176.746094 573.574219 1175.753906 572.089844 1174.5 570.835938 C 1173.246094 569.582031 1171.761719 568.589844 1170.125 567.910156 C 1168.488281 567.234375 1166.734375 566.886719 1164.960938 566.886719 Z M 949.1875 701.753906 C 945.613281 701.757812 942.183594 703.179688 939.65625 705.710938 C 937.128906 708.238281 935.710938 711.667969 935.710938 715.246094 L 935.710938 796.164062 C 935.710938 799.738281 937.132812 803.167969 939.660156 805.695312 C 942.1875 808.222656 945.613281 809.640625 949.1875 809.644531 C 952.765625 809.644531 956.195312 808.226562 958.722656 805.699219 C 961.253906 803.171875 962.675781 799.742188 962.679688 796.164062 L 962.679688 728.726562 L 1326.789062 728.726562 C 1330.363281 728.726562 1333.792969 727.308594 1336.324219 724.777344 C 1338.851562 722.25 1340.277344 718.820312 1340.277344 715.246094 C 1340.277344 713.472656 1339.929688 711.71875 1339.25 710.082031 C 1338.574219 708.445312 1337.582031 706.957031 1336.328125 705.707031 C 1335.074219 704.453125 1333.585938 703.457031 1331.953125 702.78125 C 1330.3125 702.101562 1328.558594 701.753906 1326.789062 701.753906 Z M 220.96875 485.96875 C 217.390625 485.96875 213.964844 487.390625 211.433594 489.921875 C 208.90625 492.449219 207.488281 495.878906 207.488281 499.457031 C 207.488281 503.03125 208.90625 506.460938 211.433594 508.992188 C 213.964844 511.523438 217.390625 512.945312 220.96875 512.945312 L 355.824219 512.945312 C 357.597656 512.945312 359.351562 512.597656 360.988281 511.921875 C 362.625 511.242188 364.113281 510.25 365.367188 508.996094 C 366.617188 507.742188 367.613281 506.257812 368.289062 504.617188 C 368.96875 502.980469 369.316406 501.230469 369.316406 499.457031 C 369.316406 497.683594 368.96875 495.929688 368.289062 494.292969 C 367.613281 492.65625 366.617188 491.167969 365.367188 489.917969 C 364.113281 488.664062 362.625 487.671875 360.988281 486.992188 C 359.351562 486.316406 357.597656 485.964844 355.824219 485.96875 Z M 355.824219 378.078125 C 354.054688 378.078125 352.300781 378.425781 350.664062 379.105469 C 349.027344 379.78125 347.539062 380.773438 346.289062 382.027344 C 345.035156 383.28125 344.042969 384.769531 343.363281 386.402344 C 342.6875 388.042969 342.335938 389.796875 342.335938 391.566406 L 342.335938 661.296875 C 342.335938 663.066406 342.6875 664.820312 343.363281 666.457031 C 344.042969 668.09375 345.035156 669.582031 346.289062 670.835938 C 347.539062 672.085938 349.027344 673.082031 350.664062 673.757812 C 352.300781 674.4375 354.054688 674.785156 355.824219 674.785156 C 357.597656 674.785156 359.351562 674.4375 360.988281 673.757812 C 362.625 673.082031 364.113281 672.085938 365.367188 670.835938 C 366.617188 669.582031 367.613281 668.09375 368.289062 666.457031 C 368.96875 664.820312 369.316406 663.066406 369.316406 661.296875 L 369.316406 391.566406 C 369.316406 389.796875 368.96875 388.042969 368.289062 386.402344 C 367.613281 384.769531 366.617188 383.28125 365.367188 382.027344 C 364.113281 380.773438 362.625 379.78125 360.988281 379.105469 C 359.351562 378.425781 357.597656 378.078125 355.824219 378.078125 Z M 113.085938 647.804688 C 111.316406 647.804688 109.5625 648.152344 107.925781 648.832031 C 106.289062 649.507812 104.800781 650.503906 103.546875 651.753906 C 102.292969 653.007812 101.300781 654.496094 100.625 656.132812 C 99.945312 657.769531 99.597656 659.523438 99.597656 661.296875 C 99.597656 663.066406 99.945312 664.820312 100.625 666.457031 C 101.300781 668.09375 102.292969 669.582031 103.546875 670.835938 C 104.800781 672.085938 106.289062 673.082031 107.925781 673.757812 C 109.5625 674.4375 111.316406 674.785156 113.085938 674.785156 L 504.164062 674.785156 L 504.164062 796.164062 C 504.167969 799.742188 505.589844 803.171875 508.117188 805.699219 C 510.648438 808.226562 514.078125 809.644531 517.652344 809.644531 C 521.230469 809.644531 524.660156 808.226562 527.1875 805.699219 C 529.71875 803.171875 531.140625 799.742188 531.144531 796.164062 L 531.144531 661.296875 C 531.144531 659.523438 530.792969 657.769531 530.117188 656.132812 C 529.4375 654.496094 528.445312 653.007812 527.191406 651.757812 C 525.941406 650.503906 524.453125 649.507812 522.816406 648.832031 C 521.179688 648.152344 519.425781 647.804688 517.652344 647.804688 Z M 1003.136719 297.15625 C 1001.363281 297.15625 999.609375 297.503906 997.972656 298.183594 C 996.335938 298.859375 994.847656 299.855469 993.59375 301.109375 C 992.34375 302.359375 991.347656 303.847656 990.671875 305.484375 C 989.992188 307.121094 989.644531 308.875 989.644531 310.648438 L 989.644531 620.835938 L 814.339844 620.835938 C 812.566406 620.835938 810.816406 621.183594 809.175781 621.863281 C 807.539062 622.539062 806.054688 623.53125 804.800781 624.785156 C 803.546875 626.039062 802.554688 627.527344 801.878906 629.164062 C 801.199219 630.800781 800.851562 632.554688 800.851562 634.324219 L 800.851562 796.164062 C 800.851562 799.742188 802.273438 803.171875 804.804688 805.699219 C 807.332031 808.226562 810.761719 809.644531 814.339844 809.644531 C 817.914062 809.640625 821.339844 808.222656 823.867188 805.695312 C 826.394531 803.167969 827.816406 799.738281 827.820312 796.164062 L 827.820312 647.804688 L 1003.136719 647.804688 C 1006.710938 647.804688 1010.140625 646.386719 1012.667969 643.859375 C 1015.199219 641.332031 1016.621094 637.902344 1016.625 634.324219 L 1016.625 310.648438 C 1016.625 308.875 1016.277344 307.121094 1015.597656 305.484375 C 1014.921875 303.847656 1013.925781 302.359375 1012.671875 301.109375 C 1011.421875 299.855469 1009.933594 298.859375 1008.296875 298.183594 C 1006.660156 297.503906 1004.90625 297.15625 1003.136719 297.15625 Z M 517.652344 216.238281 C 515.882812 216.238281 514.128906 216.585938 512.492188 217.265625 C 510.855469 217.941406 509.367188 218.9375 508.113281 220.1875 C 506.863281 221.441406 505.867188 222.929688 505.191406 224.566406 C 504.511719 226.203125 504.164062 227.957031 504.164062 229.726562 L 504.164062 580.375 C 504.164062 582.148438 504.511719 583.902344 505.191406 585.539062 C 505.871094 587.175781 506.863281 588.664062 508.113281 589.914062 C 509.367188 591.167969 510.855469 592.160156 512.492188 592.839844 C 514.128906 593.515625 515.882812 593.867188 517.652344 593.867188 L 612.054688 593.867188 L 612.054688 796.164062 C 612.058594 799.738281 613.480469 803.167969 616.007812 805.695312 C 618.535156 808.222656 621.960938 809.640625 625.535156 809.644531 C 629.109375 809.644531 632.539062 808.226562 635.070312 805.699219 C 637.601562 803.171875 639.023438 799.742188 639.023438 796.164062 L 639.023438 580.375 C 639.023438 578.605469 638.675781 576.851562 637.996094 575.214844 C 637.320312 573.574219 636.324219 572.089844 635.074219 570.835938 C 633.820312 569.582031 632.335938 568.589844 630.695312 567.914062 C 629.058594 567.234375 627.308594 566.886719 625.535156 566.886719 L 531.144531 566.886719 L 531.144531 229.726562 C 531.144531 227.957031 530.792969 226.203125 530.117188 224.566406 C 529.4375 222.929688 528.445312 221.441406 527.191406 220.1875 C 525.941406 218.9375 524.453125 217.941406 522.816406 217.265625 C 521.179688 216.585938 519.425781 216.238281 517.652344 216.238281 Z M 706.449219 458.996094 C 702.871094 459 699.445312 460.421875 696.914062 462.949219 C 694.386719 465.480469 692.96875 468.910156 692.96875 472.484375 C 692.972656 476.0625 694.390625 479.488281 696.917969 482.015625 C 699.445312 484.542969 702.875 485.964844 706.449219 485.96875 L 814.339844 485.96875 C 817.914062 485.964844 821.339844 484.542969 823.867188 482.015625 C 826.394531 479.488281 827.816406 476.0625 827.820312 472.484375 C 827.820312 468.910156 826.398438 465.480469 823.871094 462.949219 C 821.34375 460.421875 817.917969 459 814.339844 458.996094 Z M 706.449219 324.128906 C 702.871094 324.128906 699.445312 325.550781 696.914062 328.082031 C 694.386719 330.609375 692.96875 334.039062 692.96875 337.617188 L 692.96875 796.164062 C 692.972656 799.738281 694.390625 803.167969 696.917969 805.695312 C 699.445312 808.222656 702.875 809.640625 706.449219 809.644531 C 710.023438 809.644531 713.453125 808.226562 715.984375 805.699219 C 718.515625 803.171875 719.933594 799.742188 719.9375 796.164062 L 719.9375 337.617188 C 719.9375 335.84375 719.589844 334.09375 718.910156 332.453125 C 718.234375 330.816406 717.238281 329.328125 715.988281 328.078125 C 714.734375 326.824219 713.246094 325.832031 711.609375 325.152344 C 709.972656 324.476562 708.21875 324.125 706.449219 324.128906 Z M 706.449219 324.128906 " fill-opacity="1" fill-rule="nonzero"/></g><g clip-path="url(#4567f87999)"><g transform="matrix(1, 0, 0, 1, 518, 331)"><g clip-path="url(#29fa0b49f1)"><g clip-path="url(#7b3cd98443)"><path fill="#2979ff" d="M 0.261719 0.59375 L 4.011719 0.59375 L 4.011719 243.59375 L 0.261719 243.59375 Z M 0.261719 0.59375 " fill-opacity="1" fill-rule="nonzero"/></g></g></g></g></svg>